<?xml version="1.0" encoding="UTF-8"?> <svg xmlns="http://www.w3.org/2000/svg" id="Layer_1" data-name="Layer 1" viewBox="0 0 444 104.5"><defs><style>.cls-1{fill:#60c3ad;}.cls-2{fill:#003d58;}</style></defs><title>DTC Logo &amp;amp; wordmark</title><path class="cls-1" d="M78.5,368.9h81.4l1,1,17.6,17.6,1,1v65.3l-1,1-17.6,17.6-1,1H75V368.9Zm41.8,41.8h12.9l1,1,2.5,2.5,1,1V427l-1,1.1-2.5,2.5-1,1H116.8V410.7Zm10,7h-6.5v6.9h6.5l.4-.4v-6.1l-.4-.4Zm-23.9-20.9h35.7l1,1,7.5,7.5,1,1V436l-1,1-7.5,7.5-1,1H102.9V396.8Zm32.8,6.9H109.8v34.9h29.4l5.5-5.5V409.2l-5.5-5.5ZM92.4,382.8H151l1,1,12.6,12.6,1,1v47.5l-1,1L152,458.4l-1,1.1H88.9V382.8Zm55.7,7H95.9v62.7h52.2L158.6,442V400.3l-10.5-10.5Zm8.9-13.9H82v90.5h75l15.5-15.5V391.4L157,375.9Z" transform="translate(-75 -368.9)"></path><path class="cls-2" d="M368.3,394.7h-7.9v-4.4h21.1v4.4h-8V417h-5.2V394.7Zm16.2,17.7V390.3h5.2v20.3l1.9,2h7.5l1.9-2V390.3h5.2v22.1l-4.6,4.6H389.1l-4.6-4.6Zm47.6-4.2V417h-5.2v-7.7l-2.3-2.5h-8.3V417h-5.1V390.3h16.7l4.1,4.2v8l-2.6,2.7,2.7,3Zm-15.8-5.7h9.2l1.4-1.3V396l-1.4-1.3h-9.2v7.8Zm20.6-12.2h16.7l3.8,3.9v7.4l-1.5,1.6,2.7,2.7v7l-4.1,4.1H436.9V390.3Zm14,11.2,1.4-1.4V396l-1.3-1.3h-9.1v6.8Zm.9,11.2,1.7-1.7v-3.7l-1.7-1.7h-9.9v7.1Zm10.8-22.4h5.1V417h-5.1V390.3Zm10.3,0h4.6l11.9,18.1h.1V390.3h5V417h-4.7l-11.9-18.1h0V417h-5V390.3Zm26.5,0h19.3v4.4H504.6v6.8h13v4.3h-13v6.8h14.1V417H499.4V390.3ZM218.9,447.6V429.7l4.4-4.4h13l4.3,4.3v4.1h-5.2v-2.2l-1.8-1.8H226l-1.9,2v13.9l1.9,1.9h7.6l1.8-1.8v-2.1h5.2v4l-4.3,4.3h-13l-4.4-4.3Zm24.9,0V429.7l4.4-4.4h13.7l4.4,4.4v17.9l-4.4,4.3H248.2l-4.4-4.3Zm15.4-.1,1.9-1.9V431.7l-1.9-2H251l-2,2v13.9l2,1.9Zm11.7-22.2h4.6l11.9,18.1h.1V425.3h5v26.6h-4.7l-11.9-18h0v18h-5V425.3Zm32.6,4.4h-8v-4.4h21.1v4.4h-8v22.2h-5.1V429.7Zm37.1,13.4v8.8h-5.2v-7.6l-2.3-2.6h-8.3v10.2h-5.2V425.3h16.8l4,4.1v8.1l-2.6,2.6,2.8,3Zm-15.8-5.6H334l1.3-1.4V431l-1.3-1.4h-9.2v7.9ZM345,447.6V429.7l4.3-4.4H363l4.4,4.4v17.9l-4.4,4.3H349.3l-4.3-4.3Zm15.3-.1,1.9-1.9V431.7l-1.9-2h-8.2l-2,2v13.9l2,1.9ZM372,425.3h5.2v22.3h13.3v4.3H372V425.3Zm20.8,22.5V444h5.1v2.3l1.2,1.2H407l1.3-1.3v-4.4l-1.2-1.2H397l-4.1-4.1v-7.1l4.1-4.1h12l4.1,4.1v3.9H408V431l-1.2-1.3h-7.6L398,431v3.9l1.2,1.2h10.1l4.1,4.2v7.5l-4.2,4.1H396.9l-4.1-4.1Zm34.8-.2V429.7l4.4-4.4h13l4.3,4.3v4.1h-5.2v-2.2l-1.8-1.8h-7.6l-1.9,2v13.9l1.9,1.9h7.6l1.8-1.8v-2.1h5.2v4l-4.3,4.3H432l-4.4-4.3Zm24.7.4V436.9l3.9-3.9h10.9l4,3.9V448l-4,3.9H456.2l-3.9-3.9Zm12.4-.2,1.3-1.4v-7.9l-1.3-1.3h-6l-1.4,1.3v7.9l1.4,1.4ZM475.2,433h4.7v3.1l3-3.1h5.4v4.3H484l-3.7,3.8v10.8h-5.1V433Zm15.6,0h4.7v2.8l2.7-2.8h7.4l3.9,3.9V448l-3.9,3.9h-7.3l-2.5-2V460h-5V433Zm12.4,14.7,1.3-1.3v-7.8l-1.3-1.3h-4.3l-3.1,3V445l3,2.7Zm9.8,2.6v-2.4l1.6-1.7h2.8l1.6,1.7v2.4l-1.6,1.6h-2.8l-1.6-1.6Z" transform="translate(-75 -368.9)"></path><path class="cls-1" d="M219.3,390.3h17l4.6,4.6v17.5l-4.6,4.6h-17V390.3Zm14.5,22.3,1.9-2V396.7l-1.9-1.9h-9.3v17.8Zm11.9-22.3h5.1V417h-5.1V390.3Zm31.2,17.9V417h-5.2v-7.7l-2.2-2.5h-8.3V417H256V390.3h16.7l4.1,4.2v8l-2.6,2.7,2.7,3Zm-15.7-5.7h9.1l1.4-1.3V396l-1.4-1.3h-9.1v7.8Zm20.5-12.2h19.2v4.4h-14v6.8h12.9v4.3H286.9v6.8h14V417H281.7V390.3Zm22.7,22.3V394.7l4.4-4.4h13l4.3,4.3v4.1h-5.2v-2.2l-1.8-1.7h-7.6l-1.9,1.9v13.9l1.9,2h7.6l1.8-1.8v-2.2h5.2v4.1l-4.3,4.3h-13l-4.4-4.4Zm31.3-17.9h-7.9v-4.4h21.1v4.4h-8V417h-5.2V394.7Z" transform="translate(-75 -368.9)"></path></svg> 