<?xml version="1.0" encoding="UTF-8"?>
<svg xmlns="http://www.w3.org/2000/svg" viewBox="0 0 104.5 104.5" role="img" aria-hidden="true">
<g transform="translate(-75 -368.9)">
<path fill="#60c3ad" d="M78.5,368.9h81.4l1,1,17.6,17.6,1,1v65.3l-1,1-17.6,17.6-1,1H75V368.9Zm41.8,41.8h12.9l1,1,2.5,2.5,1,1V427l-1,1.1-2.5,2.5-1,1H116.8V410.7Zm10,7h-6.5v6.9h6.5l.4-.4v-6.1l-.4-.4Zm-23.9-20.9h35.7l1,1,7.5,7.5,1,1V436l-1,1-7.5,7.5-1,1H102.9V396.8Zm32.8,6.9H109.8v34.9h29.4l5.5-5.5V409.2l-5.5-5.5ZM92.4,382.8H151l1,1,12.6,12.6,1,1v47.5l-1,1L152,458.4l-1,1.1H88.9V382.8Zm55.7,7H95.9v62.7h52.2L158.6,442V400.3l-10.5-10.5Zm8.9-13.9H82v90.5h75l15.5-15.5V391.4L157,375.9Z"/>
</g>
</svg>
